:SAMPLES-PER-SECOND 30
:FULLY-SPECIFIED
:DEGREES
1
root  14.1891 40.0415 0.890197 -101.999 -88.8155 98.374
RightUpLeg  3.2332 -8.19775 -4.52268
RightLeg  3.91449 3.42584 -0.126897
RightFoot  -3.80719 -0.0991622 1.09498
RightToes  4.6566e-010 0 -3.6325e-017
Spine  3.57438 0.11653 0.918296
Spine1  1.39953 0.429319 -1.18385
HEad  -9.93462 -10.4783 -1.33553
LeftShoulder1  0.163626 1.95387 -2.79425
LeftArm  -21.1756 2.72013 -14.834
LeftForeArm  -1.60061 1.41858 2.40044
LeftHand  -0.104595 2.67136 3.96597
RightShoulder  0.0959392 -2.53278 1.66281
RightArm  -11.16 1.79536 9.25379
RightForeArm  -3.80157 -1.82137 -3.29729
RightHand  -0.179388 6.91611 -2.04229
LeftUpLeg  3.15929 7.11537 3.99122
LeftLeg  1.84837 -3.25572 0.352886
LeftFoot  -1.27921 0.0413535 -0.317815
LeftToes  -4.59298e-010 2.08438e-011 -1.27151e-011
2
root  14.1937 40.0415 0.888925 -102.739 -88.8002 99.1441
RightUpLeg  3.18164 -8.21034 -4.53723
RightLeg  3.94497 3.46384 -0.115141
RightFoot  -3.84763 -0.100432 1.11468
RightToes  4.6566e-010 0 -3.6325e-017
Spine  3.49061 0.125812 0.862068
Spine1  1.48892 0.43124 -1.10585
HEad  -9.83032 -10.4829 -1.37178
LeftShoulder1  0.163626 1.98662 -2.84925
LeftArm  -21.1834 2.80261 -14.8424
LeftForeArm  -1.71326 1.41361 2.41604
LeftHand  -0.102995 2.74962 3.96256
RightShoulder  0.0959403 -2.48792 1.60289
RightArm  -11.2097 1.70313 9.30638
RightForeArm  -3.77516 -1.86713 -3.33708
RightHand  -0.180524 7.21256 -2.01997
LeftUpLeg  3.1204 7.08872 3.96473
LeftLeg  1.85976 -3.23255 0.36159
LeftFoot  -1.26832 0.0358649 -0.232519
LeftToes  -4.59298e-010 2.08438e-011 -1.27151e-011
3
root  14.2004 40.0415 0.884525 -105.222 -88.803 101.63
RightUpLeg  3.15154 -8.17242 -4.49543
RightLeg  3.95165 3.46965 -0.135879
RightFoot  -3.82556 -0.102787 1.15124
RightToes  4.6566e-010 0 -3.6325e-017
Spine  3.34285 0.169436 0.776658
Spine1  1.74931 0.443034 -0.942544
HEad  -9.62601 -10.4242 -1.57659
LeftShoulder1  0.163626 2.00259 -3.00922
LeftArm  -21.3138 2.78029 -14.8416
LeftForeArm  -1.29975 1.44072 2.50179
LeftHand  -0.0762099 3.25241 3.33063
RightShoulder  0.0959252 -2.47127 1.42052
RightArm  -11.2729 1.60171 9.46438
RightForeArm  -3.87888 -1.94049 -3.38166
RightHand  -0.173236 7.408 -1.93252
LeftUpLeg  3.12431 7.16224 4.02257
LeftLeg  1.83953 -3.24101 0.304588
LeftFoot  -1.2636 0.0329051 -0.186521
LeftToes  -4.59298e-010 2.08438e-011 -1.27151e-011
4
root  14.2051 40.0415 0.883129 -106.808 -88.7778 103.168
RightUpLeg  3.20114 -8.18564 -4.51299
RightLeg  3.92652 3.50386 -0.141479
RightFoot  -3.82676 -0.0990894 1.09385
RightToes  4.6566e-010 0 -3.6325e-017
Spine  3.35137 0.173463 0.773358
Spine1  1.83857 0.454978 -0.972144
HEad  -9.50953 -10.3148 -1.52936
LeftShoulder1  0.163626 2.01086 -2.99899
LeftArm  -21.354 2.9588 -14.9033
LeftForeArm  -1.39546 1.37227 2.53501
LeftHand  -0.0841214 3.16035 3.62256
RightShoulder  0.0959349 -2.4594 1.50219
RightArm  -11.0998 1.61182 9.41346
RightForeArm  -4.01799 -2.01913 -3.32239
RightHand  -0.178272 6.99381 -2.02242
LeftUpLeg  3.17805 7.12765 3.9833
LeftLeg  1.82756 -3.12402 0.349277
LeftFoot  -1.31081 0.0363267 -0.239695
LeftToes  -4.59298e-010 2.08438e-011 -1.27151e-011
5
root  14.2101 40.0415 0.883495 -104.785 -88.7514 101.146
RightUpLeg  3.18419 -8.22939 -4.5731
RightLeg  3.96099 3.53112 -0.117305
RightFoot  -3.83142 -0.105422 1.19212
RightToes  4.6566e-010 0 -3.6325e-017
Spine  3.41841 0.152182 0.727987
Spine1  1.78106 0.432568 -0.966013
HEad  -9.36348 -10.4164 -1.45582
LeftShoulder1  0.163626 2.08371 -3.00348
LeftArm  -21.4632 2.98843 -14.9551
LeftForeArm  -0.980889 1.37972 2.61385
LeftHand  -0.0847487 2.93574 3.41177
RightShoulder  0.0959292 -2.47633 1.47191
RightArm  -11.095 1.57988 9.48182
RightForeArm  -3.87153 -2.0852 -3.34133
RightHand  -0.171091 6.79025 -1.97857
LeftUpLeg  3.19821 7.10506 3.94464
LeftLeg  1.76125 -3.12499 0.349773
LeftFoot  -1.301 0.0402332 -0.300404
LeftToes  -4.59298e-010 2.08438e-011 -1.27151e-011
6
root  14.2089 40.0415 0.879518 -103.442 -88.7599 99.7804
RightUpLeg  3.19904 -8.23314 -4.56934
RightLeg  3.99092 3.52352 -0.114152
RightFoot  -3.85754 -0.10505 1.18635
RightToes  4.6566e-010 0 -3.6325e-017
Spine  3.41036 0.1357 0.727781
Spine1  1.8532 0.422077 -0.979636
HEad  -9.40264 -10.3941 -1.30203
LeftShoulder1  0.163626 2.06641 -2.96559
LeftArm  -21.6727 3.0512 -15.0109
LeftForeArm  -0.781629 1.49267 2.793
LeftHand  -0.0926353 2.15366 2.95844
RightShoulder  0.0959323 -2.4985 1.54164
RightArm  -11.0536 1.51973 9.47335
RightForeArm  -3.93388 -1.9614 -3.30991
RightHand  -0.170699 6.55086 -2.00153
LeftUpLeg  3.24784 7.09955 3.9545
LeftLeg  1.70569 -3.18152 0.357808
LeftFoot  -1.29028 0.043106 -0.345049
LeftToes  -4.59298e-010 2.08438e-011 -1.27151e-011
7
root  14.2106 40.0415 0.878101 -101.024 -88.746 97.4059
RightUpLeg  3.14755 -8.26204 -4.59786
RightLeg  4.00839 3.50649 -0.0938057
RightFoot  -3.85628 -0.104991 1.18544
RightToes  4.6566e-010 0 -3.6325e-017
Spine  3.338 0.10712 0.730498
Spine1  1.90454 0.404645 -1.0331
HEad  -9.1794 -10.5487 -1.36966
LeftShoulder1  0.163626 2.06421 -2.95281
LeftArm  -21.6805 3.02143 -15.0762
LeftForeArm  -0.635237 1.49343 2.78822
LeftHand  -0.0916742 2.39359 3.12973
RightShoulder  0.0959351 -2.49634 1.56605
RightArm  -11.06 1.48898 9.50304
RightForeArm  -4.0317 -1.97441 -3.31808
RightHand  -0.169829 6.55335 -1.99333
LeftUpLeg  3.16041 7.07715 3.92016
LeftLeg  1.7639 -3.18272 0.35158
LeftFoot  -1.26468 0.0430518 -0.344207
LeftToes  -4.59298e-010 2.08438e-011 -1.27151e-011
8
root  14.2118 40.0415 0.876312 -99.4576 -88.7688 95.8051
RightUpLeg  3.20533 -8.24752 -4.5771
RightLeg  3.9826 3.42705 -0.107966
RightFoot  -3.85067 -0.103485 1.16206
RightToes  4.6566e-010 0 -3.6325e-017
Spine  3.35041 0.0825715 0.682666
Spine1  1.95139 0.359615 -0.932005
HEad  -9.20561 -10.4669 -1.37479
LeftShoulder1  0.163626 2.07847 -3.02375
LeftArm  -21.5153 3.06101 -15.0595
LeftForeArm  -0.920434 1.40961 2.66812
LeftHand  -0.0973032 2.54502 3.50186
RightShoulder  0.0959301 -2.46844 1.46851
RightArm  -11.1049 1.47323 9.59237
RightForeArm  -4.0644 -2.00038 -3.33663
RightHand  -0.18139 6.35688 -2.12982
LeftUpLeg  3.16439 7.0864 3.95481
LeftLeg  1.82131 -3.2795 0.350232
LeftFoot  -1.30082 0.0413997 -0.318532
LeftToes  -4.59298e-010 2.08438e-011 -1.27151e-011
